<?xml version="1.0" encoding="UTF-8"?>
<svg id="_レイヤー_1" data-name="レイヤー 1" xmlns="http://www.w3.org/2000/svg" viewBox="0 0 677.12 99.02">
  <defs>
    <style>
      .cls-1 {
        fill: #191e28;
      }
    </style>
  </defs>
  <g>
    <path class="cls-1" d="M157.05,32.02h-18.09v9.66h16.48v12.73h-16.48v22.7h-15.03V19.29h33.12v12.73Z"/>
    <path class="cls-1" d="M177.06,19.29v57.81h-13.88V19.29h13.88Z"/>
    <path class="cls-1" d="M213.87,37.77h13.95v39.33h-13.95v-4.37c-2.96,3.73-6.98,5.6-12.04,5.6-2.86,0-5.5-.52-7.9-1.57-2.4-1.05-4.5-2.52-6.29-4.41-1.79-1.89-3.18-4.11-4.18-6.67-1-2.56-1.5-5.34-1.5-8.36,0-2.81.48-5.48,1.46-8.01.97-2.53,2.33-4.74,4.06-6.63,1.74-1.89,3.81-3.39,6.21-4.49,2.4-1.1,5.06-1.65,7.97-1.65,4.91,0,8.97,1.71,12.19,5.14v-3.91ZM196.38,57.32c0,1.28.23,2.47.69,3.56.46,1.1,1.08,2.06,1.88,2.88.79.82,1.74,1.46,2.84,1.92,1.1.46,2.29.69,3.57.69s2.39-.23,3.49-.69c1.1-.46,2.04-1.1,2.84-1.92.79-.82,1.43-1.76,1.92-2.84.49-1.07.73-2.22.73-3.45s-.24-2.39-.73-3.49c-.49-1.1-1.12-2.06-1.92-2.87-.79-.82-1.74-1.46-2.84-1.92-1.1-.46-2.26-.69-3.49-.69s-2.47.23-3.57.69c-1.1.46-2.04,1.1-2.84,1.92-.79.82-1.42,1.75-1.88,2.8-.46,1.05-.69,2.18-.69,3.41Z"/>
    <path class="cls-1" d="M279.04,37.77v36.65c0,2.2-.13,4.17-.38,5.9-.26,1.74-.61,3.27-1.07,4.6-.61,1.69-1.57,3.26-2.88,4.72-1.3,1.46-2.88,2.72-4.71,3.79-1.84,1.07-3.92,1.92-6.25,2.53-2.33.61-4.84.92-7.55.92-3.07,0-5.88-.38-8.43-1.15-2.56-.77-4.79-1.83-6.71-3.18s-3.49-2.94-4.71-4.75c-1.23-1.82-2.05-3.8-2.45-5.94h15.64c.97,2.61,3.17,3.91,6.59,3.91,2.91,0,5.15-.82,6.71-2.45,1.56-1.64,2.34-3.91,2.34-6.82v-3.76c-1.02.97-2.01,1.78-2.95,2.42-.95.64-1.91,1.16-2.88,1.57-.97.41-1.99.7-3.07.88-1.07.18-2.25.27-3.53.27-2.81,0-5.39-.49-7.74-1.46-2.35-.97-4.38-2.33-6.1-4.06-1.71-1.74-3.04-3.82-3.99-6.25-.95-2.43-1.42-5.12-1.42-8.09s.51-5.81,1.53-8.4c1.02-2.58,2.42-4.83,4.18-6.75,1.76-1.92,3.86-3.42,6.29-4.52,2.43-1.1,5.07-1.65,7.94-1.65,4.65,0,8.56,1.74,11.73,5.21v-4.14h13.88ZM247.91,57.24c0,1.28.23,2.47.69,3.57.46,1.1,1.08,2.06,1.88,2.88.79.82,1.74,1.46,2.84,1.92,1.1.46,2.29.69,3.57.69s2.39-.23,3.49-.69c1.1-.46,2.04-1.1,2.84-1.92.79-.82,1.43-1.78,1.92-2.88.49-1.1.73-2.26.73-3.49s-.24-2.45-.73-3.53c-.49-1.07-1.14-2.02-1.96-2.84-.82-.82-1.78-1.46-2.88-1.92-1.1-.46-2.24-.69-3.41-.69s-2.38.24-3.45.73c-1.07.49-2.02,1.12-2.84,1.92-.82.79-1.47,1.73-1.96,2.8-.49,1.07-.73,2.22-.73,3.45Z"/>
    <path class="cls-1" d="M310.55,47.89c-2.56-1.33-5.06-1.99-7.51-1.99-1.28,0-2.31.26-3.11.77-.79.51-1.19,1.2-1.19,2.07,0,.46.06.83.19,1.11.13.28.41.55.84.81.43.26,1.07.49,1.92.69s1.96.46,3.33.77c3.83.77,6.7,2.13,8.59,4.1,1.89,1.97,2.84,4.49,2.84,7.55,0,2.3-.46,4.37-1.38,6.21-.92,1.84-2.2,3.39-3.83,4.64-1.64,1.25-3.6,2.22-5.9,2.91-2.3.69-4.83,1.04-7.59,1.04-5.32,0-10.56-1.51-15.72-4.52l5.06-9.81c3.88,2.66,7.56,3.99,11.04,3.99,1.28,0,2.33-.28,3.14-.84.82-.56,1.23-1.28,1.23-2.15,0-.51-.06-.93-.19-1.26-.13-.33-.4-.64-.8-.92-.41-.28-1.01-.54-1.8-.77-.79-.23-1.83-.47-3.11-.73-4.29-.87-7.3-2.16-9.01-3.87-1.71-1.71-2.57-4.08-2.57-7.09,0-2.2.41-4.18,1.23-5.94.82-1.76,1.99-3.26,3.53-4.49,1.53-1.23,3.39-2.17,5.56-2.84,2.17-.66,4.59-1,7.25-1,4.34,0,8.56.84,12.65,2.53l-4.68,9.05Z"/>
    <path class="cls-1" d="M320.44,19.29h13.88v23.46c1.89-2.3,3.81-3.85,5.75-4.64,1.94-.79,4.22-1.19,6.82-1.19,4.96,0,8.7,1.37,11.23,4.1,2.53,2.74,3.79,6.43,3.79,11.08v24.99h-13.88v-19.86c0-1.99-.15-3.6-.46-4.83-.31-1.23-.82-2.17-1.53-2.84-1.23-1.07-2.71-1.61-4.45-1.61-2.35,0-4.15.7-5.41,2.11-1.25,1.41-1.88,3.41-1.88,6.02v21.01h-13.88V19.29Z"/>
    <path class="cls-1" d="M365.83,26.66c0-1.07.2-2.08.61-3.03.41-.95.97-1.78,1.69-2.49s1.55-1.28,2.49-1.69c.95-.41,1.96-.61,3.03-.61s2.08.2,3.03.61c.95.41,1.78.97,2.49,1.69.71.72,1.28,1.55,1.69,2.49.41.95.61,1.96.61,3.03s-.2,2.08-.61,3.03c-.41.95-.97,1.78-1.69,2.49-.72.72-1.55,1.28-2.49,1.69-.95.41-1.96.61-3.03.61s-2.08-.2-3.03-.61c-.95-.41-1.78-.97-2.49-1.69-.72-.72-1.28-1.55-1.69-2.49-.41-.95-.61-1.96-.61-3.03ZM380.63,37.77v39.33h-13.88v-39.33h13.88Z"/>
    <path class="cls-1" d="M399.41,96.73h-13.88v-58.96h13.88v4.37c2.96-3.73,7-5.6,12.11-5.6,2.81,0,5.43.55,7.86,1.65,2.43,1.1,4.54,2.6,6.33,4.49,1.79,1.89,3.18,4.12,4.18,6.67,1,2.56,1.5,5.29,1.5,8.2s-.5,5.62-1.5,8.13c-1,2.5-2.38,4.7-4.14,6.59-1.76,1.89-3.85,3.37-6.25,4.45-2.4,1.07-5.01,1.61-7.82,1.61-4.91,0-9-1.69-12.27-5.06v23.46ZM416.89,57.55c0-1.23-.22-2.39-.65-3.49-.43-1.1-1.06-2.06-1.88-2.87-.82-.82-1.78-1.47-2.88-1.96-1.1-.49-2.29-.73-3.57-.73s-2.38.23-3.45.69c-1.07.46-2.01,1.1-2.8,1.92-.79.82-1.43,1.78-1.92,2.87-.49,1.1-.73,2.26-.73,3.49s.23,2.38.69,3.45,1.1,2.01,1.92,2.8c.82.79,1.78,1.43,2.88,1.92,1.1.49,2.26.73,3.49.73s2.38-.23,3.45-.69c1.07-.46,2.01-1.1,2.8-1.92.79-.82,1.43-1.76,1.92-2.84.49-1.07.73-2.2.73-3.37Z"/>
    <path class="cls-1" d="M444.11,19.29l9.97,37.34,12.27-37.34h11.96l12.27,37.34,9.97-37.34h15.72l-17.25,57.81h-15.33l-11.35-33.51-11.35,33.51h-15.33l-17.25-57.81h15.72Z"/>
    <path class="cls-1" d="M510.13,57.09c0-2.91.59-5.64,1.76-8.17,1.18-2.53,2.81-4.73,4.91-6.59,2.1-1.87,4.59-3.34,7.48-4.41,2.89-1.07,6.04-1.61,9.47-1.61s6.5.52,9.39,1.57c2.89,1.05,5.39,2.5,7.51,4.37,2.12,1.87,3.77,4.09,4.95,6.67,1.17,2.58,1.76,5.43,1.76,8.55s-.6,5.97-1.8,8.55c-1.2,2.58-2.85,4.8-4.95,6.67-2.1,1.87-4.61,3.31-7.55,4.33-2.94,1.02-6.12,1.53-9.55,1.53s-6.49-.51-9.35-1.53c-2.86-1.02-5.33-2.48-7.4-4.37-2.07-1.89-3.69-4.15-4.87-6.79-1.18-2.63-1.76-5.56-1.76-8.78ZM524.77,57.24c0,1.33.24,2.54.73,3.64.49,1.1,1.12,2.06,1.92,2.88.79.82,1.74,1.46,2.84,1.92,1.1.46,2.26.69,3.49.69s2.39-.23,3.49-.69c1.1-.46,2.04-1.1,2.84-1.92.79-.82,1.43-1.78,1.92-2.88.49-1.1.73-2.29.73-3.56s-.24-2.39-.73-3.49c-.49-1.1-1.12-2.06-1.92-2.87-.79-.82-1.74-1.46-2.84-1.92-1.1-.46-2.26-.69-3.49-.69s-2.39.23-3.49.69c-1.1.46-2.04,1.1-2.84,1.92-.79.82-1.43,1.76-1.92,2.84-.49,1.07-.73,2.22-.73,3.45Z"/>
    <path class="cls-1" d="M560.73,37.77h13.88v6.44c1.48-2.35,3.3-4.15,5.44-5.41,2.15-1.25,4.65-1.88,7.51-1.88h1.19c.43,0,.93.05,1.5.15v13.26c-1.84-.92-3.83-1.38-5.98-1.38-3.22,0-5.63.96-7.25,2.88-1.61,1.92-2.42,4.71-2.42,8.4v16.87h-13.88v-39.33Z"/>
    <path class="cls-1" d="M609.93,19.29l-1.5,32.66,14.57-14.18h19.01l-19.7,18.17,20.85,21.16h-19.47l-15.26-16.02v16.02h-13.88l1.5-57.81h13.88Z"/>
    <path class="cls-1" d="M671.21,47.89c-2.56-1.33-5.06-1.99-7.51-1.99-1.28,0-2.31.26-3.11.77-.79.51-1.19,1.2-1.19,2.07,0,.46.06.83.19,1.11.13.28.41.55.84.81.43.26,1.07.49,1.92.69s1.96.46,3.33.77c3.83.77,6.7,2.13,8.59,4.1,1.89,1.97,2.84,4.49,2.84,7.55,0,2.3-.46,4.37-1.38,6.21-.92,1.84-2.2,3.39-3.83,4.64-1.64,1.25-3.6,2.22-5.9,2.91-2.3.69-4.83,1.04-7.59,1.04-5.32,0-10.56-1.51-15.72-4.52l5.06-9.81c3.88,2.66,7.56,3.99,11.04,3.99,1.28,0,2.33-.28,3.14-.84.82-.56,1.23-1.28,1.23-2.15,0-.51-.06-.93-.19-1.26-.13-.33-.4-.64-.8-.92-.41-.28-1.01-.54-1.8-.77-.79-.23-1.83-.47-3.11-.73-4.29-.87-7.3-2.16-9.01-3.87-1.71-1.71-2.57-4.08-2.57-7.09,0-2.2.41-4.18,1.23-5.94.82-1.76,1.99-3.26,3.53-4.49,1.53-1.23,3.39-2.17,5.56-2.84,2.17-.66,4.59-1,7.25-1,4.34,0,8.56.84,12.65,2.53l-4.68,9.05Z"/>
  </g>
  <circle class="cls-1" cx="43.11" cy="41.02" r=".24"/>
  <circle class="cls-1" cx="61.44" cy="48.72" r=".24"/>
  <path class="cls-1" d="M50,0C22.39,0,0,22.39,0,50c0,10.11,3,19.52,8.17,27.39l36.89-35.34c.94-.94,4.21-.99,8.25.64s6.38,4.01,6.38,5.27l.21,51.06c22.87-4.6,40.1-24.79,40.1-49.02C100,22.39,77.61,0,50,0ZM60.11,48.64c2.81.52,4.78.39,5.14-.49.65-1.61-4.28-5.12-11.02-7.84-6.73-2.72-12.72-3.62-13.37-2.02-.35.87.93,2.29,3.24,3.85-15.33-7.27-25.61-15.48-23.93-19.65,1.55-3.83,12.7-3.11,26.94,1.22,2.7-3.68,8.93-4.78,14.9-2.37,5.97,2.41,9.68,7.52,9.07,12.04,13.32,6.79,21.89,14.05,20.34,17.89-1.7,4.21-15.04,2.92-31.32-2.64Z"/>
</svg>