<?xml version="1.0" encoding="UTF-8"?>
<svg id="_レイヤー_1" data-name="レイヤー 1" xmlns="http://www.w3.org/2000/svg" viewBox="0 0 320 320">
  <defs>
    <style>
      .cls-1 {
        fill: #fff;
      }

      .cls-2 {
        fill: #191e28;
      }
    </style>
  </defs>
  <rect class="cls-1" width="320" height="320"/>
  <g>
    <circle class="cls-2" cx="140.72" cy="136.23" r=".67"/>
    <ellipse class="cls-2" cx="192.02" cy="157.78" rx=".67" ry=".67"/>
    <path class="cls-2" d="M160,21.38c-77.32,0-140,62.68-140,140,0,28.31,8.41,54.66,22.86,76.69l103.31-98.96c2.62-2.62,11.79-2.78,23.11,1.79,11.31,4.57,17.86,11.22,17.86,14.77l.59,142.97c64.04-12.87,112.27-69.42,112.27-137.25,0-77.32-62.68-140-140-140ZM188.32,157.56c7.88,1.45,13.39,1.1,14.39-1.37,1.82-4.5-11.99-14.32-30.85-21.94-18.86-7.62-35.61-10.15-37.43-5.65-.98,2.43,2.6,6.42,9.08,10.77-42.93-20.34-71.71-43.35-67-55.02,4.33-10.71,35.55-8.7,75.43,3.43,7.57-10.3,24.99-13.39,41.72-6.63,16.71,6.75,27.1,21.05,25.41,33.72,37.29,19.02,61.3,39.35,56.96,50.09-4.76,11.79-42.1,8.16-87.7-7.4Z"/>
  </g>
</svg>
